<svg width="146" height="36" viewBox="0 0 146 36" fill="none" xmlns="http://www.w3.org/2000/svg">
<path d="M76.8594 1.18686C76.8793 1.15321 76.9022 1.15321 76.9297 1.18686L76.8884 1.22051L76.8594 1.18686Z" fill="#6E80A3"/>
<path d="M41.7161 12.9413C42.1582 11.6043 42.5774 10.3408 42.9873 9.08799C43.0378 8.93502 43.1403 8.89984 43.2734 8.87536C45.4869 8.46234 47.7095 8.11051 49.9704 8.22218C51.5659 8.29713 53.1002 8.62296 54.4739 9.47959C56.337 10.6391 57.1891 12.386 57.3099 14.5276C57.3803 15.759 57.1799 16.9751 57.004 18.1805C56.6384 20.6372 56.2621 23.0909 55.9087 25.5476C55.8991 25.6506 55.8619 25.7491 55.8011 25.8328C55.7402 25.9165 55.658 25.9823 55.563 26.0233C54.122 26.8142 52.5587 27.2471 50.9525 27.5102C48.9647 27.8546 46.9373 27.9061 44.9346 27.6632C43.2657 27.4536 41.71 26.935 40.4985 25.7082C39.9727 25.1698 39.5646 24.5281 39.3 23.8237C39.0354 23.1192 38.92 22.3675 38.9613 21.6161C39.0026 20.8647 39.1996 20.1302 39.5398 19.4589C39.88 18.7877 40.3559 18.1946 40.9375 17.717C42.1796 16.6952 43.6482 16.1873 45.1947 15.8584C47.5367 15.3628 49.9 15.4301 52.265 15.6106C52.5602 15.6321 52.6244 15.5418 52.6382 15.2787C52.7438 13.4339 51.6363 12.1091 49.692 11.7527C48.3428 11.5049 47.0181 11.7191 45.6934 11.9363C44.3417 12.1587 43.0112 12.4949 41.7161 12.9413ZM49.9888 18.5064C49.1469 18.5009 48.3059 18.5628 47.4739 18.6915C46.5745 18.8444 45.701 19.0815 44.9759 19.6781C44.156 20.3527 43.9373 21.2583 44.0994 22.2557C44.2524 23.1658 44.8887 23.6645 45.7133 23.9582C46.0912 24.0912 46.4844 24.176 46.8835 24.2106C48.3581 24.3529 49.7899 24.0959 51.2125 23.7441C51.309 23.7313 51.3975 23.6837 51.4612 23.6101C51.5249 23.5365 51.5595 23.4421 51.5582 23.3448C51.7525 21.8992 51.9453 20.4521 52.1594 19.0096C52.1961 18.7603 52.1135 18.7129 51.9055 18.6731C51.2718 18.5685 50.631 18.5127 49.9888 18.5064Z" fill="#6E80A3"/>
<path d="M110.006 23.016C109.761 23.7594 109.547 24.4248 109.321 25.0903C109.14 25.6364 108.947 26.1779 108.776 26.7286C108.76 26.8128 108.719 26.8904 108.658 26.9514C108.598 27.0124 108.521 27.0541 108.437 27.0712C106.096 27.6953 103.725 28.0334 101.308 27.729C98.5547 27.3817 96.2785 26.1993 94.8834 23.6738C94.0252 22.1104 93.753 20.4078 93.8692 18.6533C94.091 15.3155 95.4815 12.5482 98.0667 10.4051C99.6377 9.10182 101.47 8.43181 103.486 8.23294C104.877 8.0968 106.26 8.12281 107.617 8.50064C110.379 9.26549 112.221 11.4147 112.574 14.26C112.778 15.8952 112.574 17.5014 112.31 19.1091C112.278 19.3095 112.177 19.3156 112.024 19.3156C111.282 19.3156 110.538 19.3156 109.796 19.3156C106.227 19.3156 102.658 19.3156 99.0886 19.3156C98.801 19.3156 98.7168 19.386 98.7122 19.6812C98.6725 22.0859 100 23.6738 102.364 24.0791C104.111 24.3851 105.81 24.1204 107.507 23.7502C108.355 23.5605 109.19 23.3152 110.006 23.016ZM103.765 16.1935H107.191C108.238 16.1935 108.238 16.1935 108.273 15.1472C108.345 13.0286 107.049 11.6472 104.943 11.5295C102.423 11.3872 100.048 13.2121 99.4358 15.9197C99.3853 16.1446 99.4358 16.1996 99.6653 16.1981C101.028 16.1874 102.388 16.1935 103.765 16.1935Z" fill="#6E80A3"/>
<path d="M118.799 27.7903C116.553 27.7753 114.323 27.4036 112.194 26.6889C111.981 26.6155 111.925 26.5543 112.001 26.3233C112.351 25.2637 112.686 24.1991 113.006 23.1293C113.086 22.8662 113.179 22.8876 113.39 22.9885C115.436 23.989 117.746 24.3147 119.988 23.9186C120.514 23.8385 121.013 23.6339 121.444 23.322C121.643 23.1838 121.809 23.0026 121.929 22.7918C122.05 22.581 122.121 22.346 122.138 22.104C122.156 21.862 122.118 21.6192 122.03 21.3934C121.941 21.1677 121.802 20.9647 121.625 20.7995C121.236 20.4396 120.799 20.1349 120.327 19.894C119.157 19.2392 117.967 18.6258 116.855 17.8671C113.867 15.8219 114.231 11.5647 117.173 9.69696C118.476 8.86939 119.904 8.45485 121.42 8.29729C123.947 8.03571 126.39 8.46861 128.797 9.19369C129.018 9.25947 129.074 9.31913 128.99 9.55317C128.628 10.5582 128.277 11.5693 127.948 12.5866C127.861 12.8543 127.757 12.8344 127.551 12.7395C126.045 12.0289 124.396 11.6731 122.731 11.6993C121.923 11.7192 121.135 11.8523 120.451 12.3296C120.161 12.5149 119.939 12.7906 119.82 13.1142C119.701 13.4378 119.692 13.7915 119.793 14.1209C119.925 14.4903 120.174 14.8066 120.502 15.0219C121.21 15.5542 122.021 15.9137 122.796 16.3389C123.745 16.8344 124.651 17.4085 125.504 18.0553C128.025 20.0561 127.769 23.8681 125.351 25.8047C123.791 27.0514 121.964 27.5501 120.021 27.7276C119.533 27.7704 119.049 27.778 118.799 27.7903Z" fill="#6E80A3"/>
<path d="M135.304 27.7902C133.088 27.7688 130.889 27.4008 128.786 26.6995C128.543 26.6185 128.48 26.5466 128.571 26.2896C128.916 25.2524 129.244 24.2092 129.562 23.1629C129.638 22.9089 129.715 22.8722 129.963 22.9915C131.999 23.9827 134.296 24.3091 136.528 23.9246C137.006 23.8495 137.465 23.6789 137.876 23.4229C138.89 22.7758 139.014 21.5873 138.157 20.7551C137.798 20.4322 137.398 20.1572 136.969 19.9367C135.745 19.2422 134.474 18.6212 133.322 17.7951C130.665 15.8754 130.995 12.4014 132.62 10.6575C133.715 9.48426 135.098 8.85403 136.632 8.51596C138.668 8.05705 140.703 8.16719 142.736 8.5435C143.592 8.69647 144.43 8.92898 145.269 9.15538C145.547 9.23339 145.648 9.316 145.53 9.63417C145.177 10.5933 144.856 11.5631 144.544 12.5406C144.456 12.8083 144.369 12.8465 144.106 12.7318C142.62 12.0341 140.996 11.6791 139.355 11.6932C138.59 11.7069 137.851 11.8201 137.184 12.2209C136.552 12.5987 136.233 13.1479 136.328 13.9036C136.387 14.3839 136.676 14.7189 137.04 14.9943C137.805 15.574 138.685 15.9564 139.517 16.4153C140.465 16.94 141.402 17.4861 142.229 18.1913C144.548 20.1799 144.287 23.8665 141.96 25.7633C140.71 26.7837 139.26 27.3129 137.695 27.5868C136.905 27.7152 136.105 27.7832 135.304 27.7902Z" fill="#6E80A3"/>
<path d="M74.7002 23.2866C74.6222 23.7455 74.4249 24.157 74.2796 24.5899C74.0027 25.4144 73.7075 26.2313 73.4336 27.0573C73.4135 27.1399 73.3677 27.214 73.3029 27.269C73.238 27.3239 73.1574 27.357 73.0726 27.3633C71.237 27.6692 69.3815 27.8635 67.5168 27.7227C64.7342 27.5132 62.3479 26.499 60.7081 24.1279C59.5516 22.4575 59.1432 20.5591 59.2457 18.5598C59.417 15.2251 60.8304 12.4961 63.4355 10.4065C64.9285 9.21029 66.6846 8.62289 68.5554 8.37814C70.8712 8.0499 73.2294 8.19088 75.4896 8.79268C75.9209 8.91047 76.337 9.07568 76.7607 9.21335C76.9137 9.2623 76.9535 9.32808 76.8969 9.49482C76.5359 10.5503 76.1779 11.6089 75.8399 12.672C75.7649 12.9061 75.6594 12.8586 75.5079 12.799C74.4278 12.3561 73.2841 12.0881 72.1196 12.0051C69.6002 11.8628 67.4097 12.5557 65.8371 14.653C64.364 16.6186 64.1361 19.883 65.7132 21.8563C66.6938 23.0801 67.9879 23.7287 69.5237 23.9077C71.1804 24.1004 72.782 23.7807 74.3637 23.3264C74.4647 23.2973 74.5671 23.2774 74.6696 23.253L74.7002 23.2866Z" fill="#6E80A3"/>
<path d="M92.14 23.2655C91.7881 24.2782 91.3843 25.2802 91.0952 26.3142C90.8856 27.0684 90.5322 27.4263 89.7093 27.5089C87.4147 27.7384 85.1201 27.9954 82.8256 27.3881C79.217 26.429 76.8598 23.5501 76.664 19.8084C76.4498 15.7425 78.007 12.4934 81.2821 10.0902C82.6589 9.08215 84.265 8.60488 85.9416 8.38613C88.2568 8.05899 90.6142 8.19943 92.8742 8.79915C93.2933 8.91388 93.6957 9.08521 94.1133 9.20606C94.332 9.2703 94.3381 9.36973 94.2662 9.56094C93.9159 10.5843 93.5687 11.6077 93.2429 12.6387C93.1649 12.885 93.0715 12.8758 92.8712 12.7993C91.268 12.1874 89.6282 11.8555 87.8981 12.0345C84.9595 12.3496 82.7231 14.2923 82.1586 17.1513C81.7517 19.2149 82.125 21.1025 83.7694 22.5634C85.0804 23.726 86.6759 24.0503 88.3754 23.9509C89.5743 23.8719 90.759 23.6458 91.9028 23.2778C91.9717 23.2655 92.0329 23.2089 92.14 23.2655Z" fill="#6E80A3"/>
<path d="M33.8645 19.0555L14.809 0V2.92479L30.9397 19.0555L30.9459 19.0616L16.9736 33.0339L16.9567 33.0171L2.99363 19.0555L2.98139 19.0433L9.83598 12.1887H6.86071L0 19.0494L0.00611895 19.0555L16.9506 36L16.9567 35.9939L33.8798 19.0708L33.8645 19.0555Z" fill="#6E80A3"/>
<path d="M14.8037 4.93799V7.86278L26.0027 19.0617L16.9805 28.0839L7.95066 19.0556L7.93842 19.0434L14.793 12.1888H11.8177L4.95703 19.0495L4.96315 19.0556L15.486 29.5784L16.9575 31.05L18.4536 29.5555L28.9366 19.0709L14.8037 4.93799Z" fill="#6E80A3"/>
<path d="M23.9981 19.0556L18.4101 13.4615L16.9232 11.9746L15.4608 13.437L9.84375 19.0495L15.4639 24.6696L16.9354 26.1412L18.4284 24.6467L24.0134 19.0709L23.9981 19.0556ZM16.9615 23.1858L12.8313 19.0556L12.819 19.0434L16.9385 14.9239L21.0687 19.0541L16.9615 23.1858Z" fill="#6E80A3"/>
</svg>
