<svg width="147" height="40" viewBox="0 0 147 40" fill="none" xmlns="http://www.w3.org/2000/svg">
<path d="M144.944 10.377C145.271 10.3793 145.594 10.4638 145.88 10.6227C146.181 10.7837 146.428 11.0284 146.592 11.3271C146.758 11.6185 146.846 11.9479 146.847 12.2832C146.846 12.6154 146.759 12.9417 146.595 13.2304C146.433 13.5282 146.188 13.7732 145.891 13.9364C145.602 14.1003 145.275 14.1865 144.943 14.1865C144.611 14.1865 144.284 14.1003 143.995 13.9364C143.697 13.7729 143.452 13.528 143.289 13.2304C143.123 12.9408 143.035 12.6127 143.035 12.2788C143.035 11.9448 143.123 11.6167 143.289 11.3271C143.453 11.028 143.701 10.7832 144.002 10.6227C144.29 10.4627 144.614 10.3781 144.944 10.377ZM144.944 10.6927C144.671 10.6949 144.404 10.7656 144.166 10.8982C143.915 11.0327 143.708 11.237 143.57 11.4865C143.431 11.7276 143.358 12.0011 143.358 12.2795C143.358 12.5579 143.431 12.8314 143.57 13.0726C143.709 13.3216 143.915 13.5257 144.166 13.6608C144.406 13.7994 144.679 13.8723 144.956 13.8723C145.234 13.8723 145.506 13.7994 145.746 13.6608C145.998 13.5266 146.205 13.3222 146.342 13.0726C146.479 12.832 146.551 12.5601 146.552 12.2832C146.551 12.0037 146.478 11.7293 146.339 11.4865C146.201 11.237 145.995 11.0327 145.743 10.8982C145.499 10.7625 145.223 10.6918 144.944 10.6927ZM144.108 13.3406V11.2854H144.811C144.987 11.2773 145.164 11.2969 145.334 11.3435C145.44 11.3786 145.53 11.4484 145.591 11.5416C145.653 11.6286 145.687 11.7326 145.688 11.8394C145.689 11.9122 145.675 11.9843 145.648 12.0516C145.62 12.1189 145.579 12.1799 145.527 12.2311C145.414 12.3455 145.262 12.4126 145.101 12.4188C145.166 12.4431 145.225 12.4801 145.276 12.5275C145.39 12.6514 145.49 12.7878 145.574 12.9341L145.824 13.3347H145.419L145.237 13.0115C145.152 12.8331 145.034 12.6716 144.891 12.5349C144.814 12.4823 144.72 12.4571 144.626 12.4634H144.433V13.3406H144.108ZM144.439 12.1864H144.839C144.976 12.2001 145.114 12.1704 145.233 12.1015C145.266 12.0742 145.293 12.0394 145.311 11.9999C145.329 11.9603 145.338 11.9171 145.337 11.8737C145.338 11.8155 145.32 11.7586 145.286 11.7114C145.251 11.6623 145.203 11.6249 145.146 11.6041C145.038 11.5742 144.926 11.5621 144.814 11.5684H144.439V12.1864Z" fill="#6E80A3"/>
<path d="M23.3517 11.4377C26.5101 11.4377 29.0706 8.87732 29.0706 5.71887C29.0706 2.56043 26.5101 0 23.3517 0C20.1932 0 17.6328 2.56043 17.6328 5.71887C17.6328 8.87732 20.1932 11.4377 23.3517 11.4377Z" fill="#6E80A3"/>
<path d="M31.4493 36.5979C34.6078 36.5979 37.1682 34.0375 37.1682 30.879C37.1682 27.7206 34.6078 25.1602 31.4493 25.1602C28.2909 25.1602 25.7305 27.7206 25.7305 30.879C25.7305 34.0375 28.2909 36.5979 31.4493 36.5979Z" fill="#6E80A3"/>
<path d="M5.71887 31.262C8.87732 31.262 11.4377 28.7015 11.4377 25.5431C11.4377 22.3846 8.87732 19.8242 5.71887 19.8242C2.56043 19.8242 0 22.3846 0 25.5431C0 28.7015 2.56043 31.262 5.71887 31.262Z" fill="#6E80A3"/>
<path d="M6.47899 17.727C8.53198 17.727 10.1963 16.0627 10.1963 14.0097C10.1963 11.9568 8.53198 10.2925 6.47899 10.2925C4.426 10.2925 2.76172 11.9568 2.76172 14.0097C2.76172 16.0627 4.426 17.727 6.47899 17.727Z" fill="#6E80A3"/>
<path d="M33.0727 16.2036C35.1257 16.2036 36.79 14.5393 36.79 12.4863C36.79 10.4333 35.1257 8.76904 33.0727 8.76904C31.0197 8.76904 29.3555 10.4333 29.3555 12.4863C29.3555 14.5393 31.0197 16.2036 33.0727 16.2036Z" fill="#6E80A3"/>
<path d="M20.8735 39.457C22.9265 39.457 24.5908 37.7927 24.5908 35.7397C24.5908 33.6867 22.9265 32.0225 20.8735 32.0225C18.8205 32.0225 17.1562 33.6867 17.1562 35.7397C17.1562 37.7927 18.8205 39.457 20.8735 39.457Z" fill="#6E80A3"/>
<path d="M12.1047 36.2168C13.526 36.2168 14.6782 35.0646 14.6782 33.6433C14.6782 32.222 13.526 31.0698 12.1047 31.0698C10.6834 31.0698 9.53125 32.222 9.53125 33.6433C9.53125 35.0646 10.6834 36.2168 12.1047 36.2168Z" fill="#6E80A3"/>
<path d="M35.5461 23.4463C36.9675 23.4463 38.1196 22.2941 38.1196 20.8728C38.1196 19.4515 36.9675 18.2993 35.5461 18.2993C34.1248 18.2993 32.9727 19.4515 32.9727 20.8728C32.9727 22.2941 34.1248 23.4463 35.5461 23.4463Z" fill="#6E80A3"/>
<path d="M12.679 10.1035C14.1003 10.1035 15.2525 8.95134 15.2525 7.53004C15.2525 6.10873 14.1003 4.95654 12.679 4.95654C11.2577 4.95654 10.1055 6.10873 10.1055 7.53004C10.1055 8.95134 11.2577 10.1035 12.679 10.1035Z" fill="#6E80A3"/>
<path d="M55.918 40.0002V11.0901H59.0082V14.7433C59.741 13.3414 60.709 12.2652 61.9124 11.5146C63.1179 10.7634 64.5131 10.3728 65.9334 10.3886C68.6708 10.3886 70.8694 11.3448 72.5295 13.257C74.1896 15.1693 75.0191 17.7045 75.0181 20.8628C75.0181 24.0777 74.206 26.6308 72.5816 28.5222C70.9573 30.4136 68.7839 31.3603 66.0615 31.3623C64.4978 31.3623 63.1356 30.9974 61.9749 30.2677C60.8143 29.5379 59.8671 28.4508 59.1333 27.0061V40.0002H55.918ZM59.0455 20.8569C59.0455 23.0412 59.6333 24.7906 60.8088 26.1051C61.9843 27.4197 63.5416 28.0799 65.4807 28.0859C67.3731 28.0859 68.8624 27.4837 69.9486 26.2794C71.0348 25.075 71.5774 23.4036 71.5764 21.2649C71.5764 18.8711 71.0338 16.9946 69.9486 15.6354C68.8634 14.2762 67.3527 13.5961 65.4167 13.5951C63.4389 13.5951 61.8831 14.2404 60.7492 15.5312C59.6154 16.8219 59.049 18.5991 59.0499 20.8628L59.0455 20.8569Z" fill="#6E80A3"/>
<path d="M95.9633 11.0904V30.5301H92.8104V27.0035C92.0499 28.4193 91.0784 29.4995 89.8959 30.2442C88.7081 30.9898 87.3308 31.3781 85.9284 31.3626C83.204 31.3626 81.0088 30.403 79.3428 28.4838C77.6768 26.5646 76.8438 24.0244 76.8438 20.8631C76.8438 17.6622 77.6529 15.116 79.2713 13.2246C80.8897 11.3332 83.0536 10.39 85.7631 10.3949C87.3517 10.3949 88.7308 10.7598 89.9004 11.4895C91.0699 12.2193 92.0132 13.306 92.73 14.7496V11.0904H95.9633ZM92.8104 20.9912C92.8104 18.796 92.2261 17.0287 91.0575 15.6893C89.8889 14.35 88.3644 13.6808 86.4839 13.6818C84.5349 13.6818 83.0139 14.2979 81.9207 15.53C80.8276 16.7621 80.2815 18.4832 80.2825 20.6934C80.2825 23.0444 80.8321 24.8574 81.9312 26.1322C83.0303 27.4071 84.5895 28.0445 86.609 28.0445C88.5451 28.0445 90.0627 27.4249 91.1618 26.1859C92.2609 24.9468 92.8104 23.2152 92.8104 20.9912Z" fill="#6E80A3"/>
<path d="M118.22 11.09V30.1901C118.22 32.3 118.082 33.8017 117.806 34.6952C117.53 35.585 117.063 36.4038 116.437 37.0945C115.548 38.0757 114.434 38.8268 113.191 39.2837C111.912 39.7613 110.443 40.0001 108.784 40.0001C105.905 40.0001 103.661 39.3274 102.052 37.9821C100.444 36.6368 99.604 34.7315 99.5325 32.2662H103.183V32.5209C103.183 33.9804 103.674 35.1068 104.656 35.9001C105.638 36.6934 107.028 37.0905 108.826 37.0915C110.125 37.0915 111.235 36.8755 112.156 36.4437C113.042 36.0408 113.779 35.3678 114.26 34.521C114.563 34.0049 114.773 33.4399 114.881 32.8515C115.006 32.2141 115.068 31.3006 115.067 30.1112V26.8348C114.335 28.2248 113.374 29.2906 112.186 30.0323C110.985 30.7787 109.596 31.1657 108.182 31.1477C105.457 31.1477 103.262 30.1986 101.597 28.3002C99.9317 26.4019 99.0986 23.8805 99.0977 20.7361C99.0977 17.559 99.9063 15.0416 101.524 13.1839C103.141 11.3263 105.305 10.395 108.016 10.39C109.592 10.39 110.975 10.7549 112.165 11.4846C113.354 12.2144 114.294 13.2872 114.985 14.703V11.09H118.22ZM115.067 20.8627C115.067 18.6784 114.487 16.922 113.326 15.5936C112.166 14.2651 110.638 13.5994 108.742 13.5965C106.792 13.5965 105.271 14.2125 104.179 15.4447C103.087 16.6768 102.541 18.3979 102.541 20.608C102.541 22.9601 103.09 24.7731 104.19 26.0469C105.289 27.3208 106.848 27.9582 108.869 27.9592C110.805 27.9592 112.323 27.3327 113.422 26.0797C114.521 24.8267 115.069 23.0877 115.067 20.8627Z" fill="#6E80A3"/>
<path d="M140.556 11.0904V30.5301H137.403V27.0035C136.644 28.4203 135.671 29.5005 134.486 30.2442C133.298 30.9898 131.921 31.3781 130.518 31.3626C127.793 31.3626 125.598 30.403 123.933 28.4838C122.268 26.5646 121.435 24.0244 121.434 20.8631C121.434 17.6622 122.242 15.116 123.86 13.2246C125.477 11.3332 127.641 10.39 130.351 10.3949C131.94 10.3949 133.32 10.7598 134.49 11.4895C135.661 12.2193 136.604 13.306 137.32 14.7496V11.0904H140.556ZM137.403 20.9912C137.403 18.796 136.819 17.0287 135.652 15.6893C134.484 14.35 132.96 13.6808 131.078 13.6818C129.128 13.6818 127.607 14.2979 126.515 15.53C125.423 16.7621 124.877 18.4832 124.877 20.6934C124.877 23.0444 125.426 24.8574 126.525 26.1322C127.625 27.4071 129.186 28.0445 131.209 28.0445C133.145 28.0445 134.663 27.4249 135.762 26.1859C136.861 24.9468 137.408 23.2152 137.403 20.9912Z" fill="#6E80A3"/>
</svg>
