<svg width="107" height="36" viewBox="0 0 107 36" fill="none" xmlns="http://www.w3.org/2000/svg">
<path d="M106.119 36.0001H0.0234375V30.701C0.386764 30.6774 0.759174 30.6356 1.13703 30.6356C35.7609 30.6356 70.3853 30.6283 105.01 30.6138C105.871 30.6138 106.18 30.8318 106.137 31.7219C106.068 33.1262 106.119 34.5413 106.119 36.0001Z" fill="#6E80A3"/>
<path d="M29.6834 13.5847C29.7924 12.2804 29.8651 11.0796 28.697 10.3729C27.4145 9.60263 26.0102 9.61172 24.7004 10.293C24.2263 10.5436 23.9647 11.2013 23.5923 11.65C23.4251 11.8571 23.2289 12.195 23.0473 12.2041C21.4214 12.2477 19.7937 12.2295 18.1787 12.2295C17.9262 10.0877 19.2214 7.71878 21.3941 6.72508C24.8948 5.12463 28.4917 5.04288 31.996 6.72508C34.2286 7.78237 35.137 9.79156 35.3114 12.1714C35.3313 12.442 35.335 12.7163 35.335 12.987C35.335 16.92 35.335 20.8512 35.335 24.866H30.47C30.3465 24.3646 30.2103 23.8232 30.054 23.1892C28.2192 24.5299 26.2609 25.3056 24.0846 25.2947C23.0016 25.299 21.9242 25.1392 20.8891 24.8206C18.6183 24.0812 17.3103 22.0956 17.2558 19.5996C17.2013 17.2107 18.3022 15.3232 20.5984 14.513C22.1099 13.9825 23.7612 13.7754 25.3671 13.6047C26.7605 13.4702 28.1902 13.5847 29.6834 13.5847ZM29.6326 17.4832C27.885 17.4832 26.1355 17.3796 24.4061 17.5195C23.2053 17.6158 22.6585 18.4278 22.7711 19.4106C22.8747 20.2608 23.6595 20.8167 24.7894 20.853C26.1269 20.8815 27.4452 20.5307 28.5916 19.8412C29.8506 19.1254 29.9141 18.9728 29.6326 17.4832Z" fill="#6E80A3"/>
<path d="M69.1783 18.4061H74.2067C75.1677 20.7805 77.6456 21.8214 80.0308 20.7859C80.4523 20.6043 80.95 20.0393 80.9664 19.6342C80.9827 19.2291 80.5159 18.6314 80.1089 18.4425C79.2697 18.0537 78.3323 17.872 77.4294 17.6214C76.0034 17.2253 74.5482 16.9165 73.1494 16.4387C71.3219 15.8138 69.9957 14.6439 69.7178 12.602C69.4053 10.2967 70.1029 8.3329 72.1158 7.13029C73.6814 6.24055 75.4246 5.70843 77.2202 5.57212C79.0159 5.4358 80.8194 5.69868 82.5015 6.34187C84.9721 7.30105 86.2691 9.15402 86.5289 11.9171C84.8413 11.9171 83.1918 11.9335 81.5459 11.8917C81.3642 11.8917 81.1608 11.5629 81.0409 11.3467C80.1707 9.78984 77.097 9.2612 75.7726 10.4529C75.046 11.1105 75.1695 12.0207 76.1668 12.3531C77.4803 12.7891 78.8591 13.0216 80.1943 13.3977C81.3629 13.6946 82.5115 14.0653 83.6332 14.5076C87.9677 16.3479 87.1484 21.5925 84.7232 23.4219C84.1353 23.8963 83.4786 24.2785 82.7758 24.5554C79.4132 25.7381 76.0415 25.6672 72.7643 24.2684C70.3609 23.2529 69.0693 21.0348 69.1783 18.4061Z" fill="#6E80A3"/>
<path d="M61.6199 20.2973H66.0416V24.8879H51.4141V20.31H55.9556V4.50525H52.2988V0H61.6199V20.2973Z" fill="#6E80A3"/>
<path d="M91.4023 5.96045C92.8193 5.96045 94.1509 5.98407 95.4789 5.94773C96.0075 5.9332 96.2455 6.09307 96.3073 6.62897C96.3636 7.12855 96.5144 7.6154 96.6706 8.32208C99.3701 5.47359 102.742 5.9441 106.092 5.99497V11.1179C104.627 11.1179 103.156 11.0725 101.69 11.1306C100.257 11.1869 98.8651 11.454 97.6933 12.4022C97.4399 12.5902 97.2365 12.8377 97.1012 13.1228C96.966 13.4079 96.9029 13.722 96.9176 14.0372C96.9522 17.3071 96.934 20.5771 96.934 23.847V24.888H91.4023V5.96045Z" fill="#6E80A3"/>
<path d="M14.6966 11.1234C13.1542 11.1234 11.6737 11.0835 10.1986 11.1361C8.85609 11.1834 7.55356 11.4486 6.43633 12.2824C5.82413 12.7384 5.4935 13.2689 5.50803 14.0991C5.5589 17.369 5.52802 20.639 5.5262 23.9089V24.8881H0V5.96237C1.45331 5.96237 2.89026 5.9442 4.33086 5.98417C4.50162 5.98417 4.75231 6.2712 4.81408 6.47103C4.97939 7.01602 5.06478 7.58099 5.21192 8.28766C6.57077 7.1014 7.97321 6.17855 9.68084 6.06774C11.3285 5.96056 12.9871 6.04412 14.6966 6.04412V11.1234Z" fill="#6E80A3"/>
<path d="M40.7773 6.00769H46.2527V24.888H40.7773V6.00769Z" fill="#6E80A3"/>
</svg>
