<svg width="139" height="36" viewBox="0 0 139 36" fill="none" xmlns="http://www.w3.org/2000/svg">
<path d="M55.229 16.2309C55.229 15.274 56.1493 14.5747 57.6957 14.5747C59.3885 14.5747 60.8618 15.1262 62.0396 16.5264L64.5794 13.8753C63.2539 12.0348 60.7506 10.9668 57.5845 10.9668C53.093 10.9668 50.8106 13.5447 50.8106 16.2323C50.8106 22.5644 60.2722 21.018 60.2722 24.184C60.2722 25.2886 59.3885 26.0246 57.6577 26.0246C55.5597 26.0246 53.8654 25.2886 52.5033 23.7788L50 26.6507C51.5099 28.4181 54.0498 29.6325 57.4002 29.6325C62.1859 29.6325 64.7257 27.0926 64.7257 24.1109C64.7272 17.5198 55.229 19.3238 55.229 16.2309Z" fill="#6E80A3"/>
<path d="M73.9609 11.4823V6.91748H69.4693V11.4823H66.3398V15.4589H69.4327V23.0799C69.4327 27.3872 71.7151 29.6329 75.2864 29.6329C77.4591 29.6329 79.1153 28.8239 80.1087 27.8656L78.0838 24.5152C77.642 25.0301 76.8314 25.3989 76.0224 25.3989C74.6968 25.3989 73.9975 24.5898 73.9975 22.9321V15.4589H82.1833V29.118H86.6749V11.4823H82.1833H73.9609Z" fill="#6E80A3"/>
<path d="M84.3879 3.82471C82.9526 3.82471 81.7734 5.03905 81.7734 6.47577C81.7734 7.94907 82.9512 9.09026 84.3879 9.09026C85.8612 9.09026 87.039 7.94907 87.039 6.47577C87.039 5.04051 85.8597 3.82471 84.3879 3.82471Z" fill="#6E80A3"/>
<path d="M98.7294 25.3989C97.4039 25.3989 96.7046 24.5898 96.7046 22.9321V15.4589H101.454V11.4823H96.668V6.91748H92.1764V11.4823H89.0469V15.4589H92.1398V23.0799C92.1398 27.3872 94.4222 29.6329 97.9935 29.6329C100.166 29.6329 101.822 28.8239 102.816 27.8656L100.791 24.5152C100.349 25.0301 99.538 25.3989 98.7294 25.3989Z" fill="#6E80A3"/>
<path d="M113.011 15.1994C114.742 15.1994 116.067 15.7524 117.172 16.819L119.748 13.6164C118.202 11.9968 115.808 10.9668 112.79 10.9668C107.636 10.9668 103.586 15.1643 103.586 20.3186C103.586 25.4364 107.636 29.6325 112.863 29.6325C115.661 29.6325 118.202 28.5279 119.601 26.9814L117.318 23.6676C116.214 24.7722 114.778 25.3984 112.974 25.3984C110.102 25.3984 108.078 23.116 108.078 20.2806C108.078 17.4452 110.066 15.1994 113.011 15.1994Z" fill="#6E80A3"/>
<path d="M131.609 10.9669C129.437 10.9669 127.744 11.7774 126.639 13.2127V3.7876H122.148V29.1161H126.639V19.1029C126.639 16.7094 128.002 15.201 130.247 15.201C132.42 15.201 133.819 16.7108 133.819 19.1029V29.1161H138.31V18.4387C138.309 13.8388 135.696 10.9669 131.609 10.9669Z" fill="#6E80A3"/>
<path fill-rule="evenodd" clip-rule="evenodd" d="M13.9166 35.9561C15.6094 35.9854 17.0564 36 18.4726 36C19.8874 36 21.2919 35.9854 22.7638 35.9546L22.9086 35.9503C24.8545 35.8683 26.6906 35.4397 28.3643 34.673C30 33.9239 31.4368 32.8764 32.6335 31.5596C33.7528 30.3307 34.6189 28.9129 35.21 27.3475C35.3724 26.9144 35.5143 26.4726 35.6314 26.0263C37.9722 25.1544 40.082 23.6138 41.6533 21.6108C43.5246 19.2275 44.5545 16.2824 44.5545 13.3197C44.5545 11.4528 44.161 9.65033 43.3841 7.96342C42.6862 6.44916 41.6957 5.06803 40.4404 3.85662C38.0176 1.52158 34.6789 0.204828 30.7857 0.0482809L30.7126 0.0453548L30.6379 0.0438917C28.9393 0.0146306 27.4924 0 26.082 0C24.6687 0 23.2656 0.0146306 21.7908 0.0453548C21.7908 0.0453548 21.6811 0.0482809 21.6445 0.049744C19.6987 0.131675 17.8625 0.560351 16.1902 1.32699C14.5545 2.07608 13.1178 3.12363 11.921 4.44038C10.8018 5.67081 9.93566 7.08705 9.34456 8.65252C9.18215 9.08559 9.04024 9.52743 8.92319 9.97367C6.5823 10.8456 4.47257 12.3862 2.90125 14.3892C1.02999 16.7725 0 19.7176 0 22.6803C0 24.5472 0.393559 26.3497 1.17045 28.0366C1.86833 29.5508 2.85882 30.9334 4.11412 32.1434C6.53694 34.4784 9.87566 35.7952 13.7645 35.9517L13.842 35.9546L13.9166 35.9561ZM38.6143 5.75276C39.6326 6.73447 40.4328 7.84933 40.9932 9.06513C41.6106 10.4038 41.9237 11.8361 41.9252 13.3212C41.9252 15.6972 41.0941 18.0644 39.5857 19.9868C38.1256 21.8479 36.0978 23.2143 33.8769 23.8332L33.356 23.9781C33.2522 24.8076 33.0503 25.6255 32.7503 26.4184C32.2763 27.6708 31.5828 28.8062 30.6889 29.7893C29.732 30.8413 28.5821 31.6796 27.2712 32.2795C25.9091 32.9027 24.405 33.2524 22.8015 33.3197C22.7752 33.3212 22.7489 33.3226 22.7225 33.3226H22.7123C21.2565 33.3519 19.8696 33.3665 18.4738 33.3665C17.0751 33.3665 15.6428 33.3519 13.9647 33.3226L13.9208 33.3212L13.8769 33.3197C10.6377 33.188 7.89299 32.1258 5.94274 30.2458C4.92445 29.2641 4.12416 28.1492 3.5638 26.9334C2.94786 25.5947 2.63476 24.1639 2.63476 22.6789C2.63476 20.3029 3.46578 17.9356 4.97273 16.0117C6.43286 14.1507 8.46066 12.7842 10.6816 12.1653L11.2024 12.0205C11.3063 11.1909 11.5082 10.3731 11.8081 9.58012C12.2821 8.32775 12.9756 7.19241 13.8696 6.20924C14.8264 5.1573 15.9764 4.31897 17.2873 3.71911C18.6479 3.09585 20.1505 2.74618 21.754 2.67888C21.7803 2.67741 21.8081 2.67595 21.8345 2.67595H21.8447C23.3004 2.64669 24.6874 2.63206 26.0832 2.63206C27.4819 2.63206 28.9142 2.64669 30.5923 2.67595L30.6362 2.67741L30.6801 2.67888C33.9193 2.81055 36.664 3.87273 38.6143 5.75276ZM30.0817 15.583C31.7101 16.7315 32.7123 19.2334 32.841 20.1244C35.7686 19.308 38.0729 16.5048 38.0729 13.3212C38.0729 11.406 37.2478 9.78349 35.9427 8.52526C34.6377 7.26849 32.7576 6.61743 30.525 6.52672C27.5126 6.47405 24.9449 6.46527 21.9237 6.52672H21.9193C17.3136 6.71692 14.9742 10.1361 14.9742 13.3212V13.3226C14.9742 15.2378 15.7467 16.8208 16.7576 17.8537C17.8315 18.992 19.1015 19.7059 21.577 20.1931C22.2646 20.3277 23.4424 20.5589 24.0349 21.1895C24.3655 21.5406 24.6289 22.0527 24.6289 22.5677C24.6289 23.0402 24.4665 23.5713 24.0832 23.9854C23.713 24.3848 23.0649 24.6686 22.3275 24.6818C19.6165 24.7315 16.4811 24.7272 13.7686 24.6818C13.0312 24.6686 12.3831 24.3848 12.0129 23.9854C11.6296 23.5699 11.4672 23.0402 11.4672 22.5677C11.4672 21.5391 12.3509 20.4536 13.9851 20.4536C14.1461 20.4506 14.3041 20.4506 14.4665 20.4521C14.4855 20.4521 14.4928 20.4287 14.4782 20.4184C12.8498 19.2699 11.8476 16.7681 11.7189 15.8771C8.79277 16.6935 6.48699 19.4967 6.48699 22.6803C6.48699 24.5955 7.31216 26.2195 8.61721 27.4762C9.92222 28.733 11.8023 29.3841 14.0349 29.4748C17.0473 29.5274 19.615 29.5362 22.6362 29.4748H22.6406C27.2463 29.2846 29.5857 25.8654 29.5857 22.6803V22.6789C29.5857 20.7637 28.8132 19.1807 27.8023 18.1478C26.7284 17.0095 25.4584 16.2956 22.983 15.8084C22.2953 15.6738 21.1176 15.4426 20.525 14.812C20.1944 14.4609 19.931 13.9488 19.931 13.4338C19.931 12.9612 20.0934 12.4302 20.4767 12.0161C20.8469 11.6167 21.495 11.3329 22.2324 11.3197C24.9435 11.2699 28.0788 11.2743 30.7913 11.3197C31.5287 11.3329 32.1768 11.6167 32.547 12.0161C32.9303 12.4316 33.0927 12.9612 33.0927 13.4338C33.0927 14.4623 32.209 15.5479 30.5748 15.5479C30.4138 15.5509 30.2558 15.5509 30.0934 15.5494C30.0744 15.5494 30.0671 15.5728 30.0817 15.583Z" fill="#6E80A3"/>
</svg>
