<svg width="221" height="30" viewBox="0 0 221 30" fill="none" xmlns="http://www.w3.org/2000/svg">
<path d="M145.115 26.6374C141.486 31.3963 135.075 30.3606 131.912 27.6819C126.836 23.3661 126.781 14.7403 131.862 10.4303C135.905 6.99757 141.38 7.35552 145.065 11.3105C145.118 11.2489 145.209 11.1931 145.221 11.1256C145.59 8.5291 145.59 8.52616 148.181 8.52616C151.441 8.52616 151.441 8.52616 151.441 11.7359C151.441 17.2547 151.417 22.7734 151.464 28.2892C151.464 29.2809 151.262 29.7415 150.197 29.5919C149.66 29.5552 149.122 29.5552 148.586 29.5919C145.675 29.5655 145.675 29.5655 145.115 26.6374ZM144.396 19.0473C144.396 16.1368 142.342 14.0361 139.479 14.0273C136.545 14.0273 134.347 16.1808 134.365 19.0532C134.365 21.8492 136.557 23.9939 139.411 24.0174C142.266 24.0409 144.393 21.9255 144.396 19.0473Z" fill="#6E80A3"/>
<path d="M93.0199 26.6818C88.8185 32.0186 80.5242 30.4577 77.514 24.9008C75.2578 20.7346 75.3165 16.5156 77.9218 12.5401C80.1927 9.07807 83.5726 7.71965 87.6684 8.20962C89.6752 8.4502 90.6434 9.04579 92.9847 11.2374C93.0191 11.2049 93.0496 11.1685 93.0757 11.1289C93.4864 10.3074 92.8585 9.01939 93.7475 8.59396C94.5045 8.23309 95.5666 8.51181 96.4966 8.50888C99.3748 8.50888 99.3748 8.50888 99.3748 11.3812C99.3748 16.9997 99.3396 22.6182 99.4042 28.2367C99.4042 29.3693 99.0815 29.7272 98.0076 29.5746C97.5192 29.5407 97.0291 29.5407 96.5407 29.5746C93.592 29.5629 93.592 29.5629 93.0199 26.6818ZM87.3691 14.0247C84.5203 14.0071 82.3081 16.1166 82.2435 18.9156C82.2284 19.5869 82.349 20.2543 82.5981 20.8779C82.8471 21.5014 83.2195 22.0683 83.693 22.5444C84.1664 23.0206 84.7311 23.3963 85.3532 23.6489C85.9753 23.9016 86.642 24.026 87.3134 24.0148C88.6362 24.0222 89.9078 23.5038 90.8484 22.5736C91.789 21.6435 92.3216 20.3778 92.329 19.055C92.3364 17.7321 91.818 16.4606 90.8878 15.5199C89.9577 14.5793 88.692 14.0468 87.3691 14.0394V14.0247Z" fill="#6E80A3"/>
<path d="M59.6254 11.1464C61.063 10.0843 62.3334 9.20123 63.8121 8.67312C69.5509 6.61936 74.2511 9.42128 74.6677 15.4535C74.9611 19.8749 74.7499 24.3345 74.7939 28.7765C74.7939 29.4778 74.4741 29.5775 73.9137 29.5716C72.3998 29.5482 70.8859 29.5188 69.372 29.5716C68.524 29.6068 68.4302 29.2078 68.436 28.5154C68.4654 25.8308 68.4595 23.1434 68.436 20.4588C68.4494 19.5306 68.4024 18.6025 68.2952 17.6803C68.0018 15.5239 67.0336 14.3532 65.4287 14.0775C63.3486 13.7195 61.418 14.588 60.4205 16.3278C59.862 17.3645 59.5887 18.5308 59.6283 19.7077C59.6283 22.6417 59.596 25.5756 59.6283 28.5095C59.643 29.3223 59.4493 29.6274 58.5868 29.5863C57.1726 29.5159 55.7526 29.5306 54.3384 29.5863C53.599 29.6156 53.3291 29.4337 53.3321 28.6269C53.3653 22.2309 53.3653 15.8339 53.3321 9.43594C53.3321 8.59683 53.6577 8.47654 54.3619 8.50588C55.4816 8.5998 56.6073 8.5998 57.7271 8.50588C59.0298 8.33571 59.4875 8.86676 59.4875 10.0667C59.5128 10.429 59.5589 10.7895 59.6254 11.1464Z" fill="#6E80A3"/>
<path d="M213.376 20.9339C211.372 20.9339 209.368 20.9339 207.364 20.9339C206.971 20.9339 206.416 20.661 206.191 21.2097C206.02 21.6439 206.302 22.0605 206.528 22.439C207.813 24.5808 211.739 25.1881 213.822 23.2869C214.954 22.2483 215.987 22.2453 217.249 22.4448C217.68 22.5123 218.129 22.5563 218.557 22.5974C220.67 22.7881 220.711 22.8703 219.678 24.8096C217.765 28.3978 213.71 30.3841 209.262 29.8912C204.908 29.4159 201.479 26.4996 200.232 22.2072C198.903 17.6302 200.411 12.7247 203.958 10.0871C207.346 7.5668 212.413 7.34968 215.958 9.69684C219.728 12.1907 220.854 15.955 220.799 20.2591C220.799 21.0512 220.297 20.9368 219.816 20.9339H213.376ZM210.263 16.6562C211.387 16.6562 212.51 16.6327 213.631 16.6562C214.394 16.6796 214.631 16.4567 214.244 15.732C213.396 14.1506 211.938 13.6929 210.31 13.6782C208.681 13.6635 207.206 14.133 206.334 15.6762C206.012 16.2483 205.991 16.6943 206.895 16.6591C208.015 16.6239 209.139 16.6591 210.263 16.6562Z" fill="#6E80A3"/>
<path d="M45.4014 27.0633C43.776 28.2897 42.0596 29.3342 40.0088 29.7625C34.7746 30.854 30.8637 28.1283 30.5556 22.7944C30.3004 18.3641 30.4617 13.9133 30.4089 9.47135C30.4089 8.71146 30.6495 8.45327 31.427 8.48848C32.8412 8.55302 34.2612 8.54716 35.6754 8.48848C36.5027 8.4562 36.7462 8.72613 36.7521 9.56524C36.7756 12.9804 36.5555 16.4013 36.8724 19.8106C37.1335 22.6418 38.1369 23.8418 40.2494 24.0296C42.6904 24.2438 44.6503 22.8179 45.3104 20.324C45.7505 18.6429 45.4894 16.9206 45.5275 15.219C45.5716 13.3148 45.5657 11.4048 45.5275 9.50656C45.5275 8.77014 45.7124 8.45914 46.5163 8.49141C47.9833 8.55302 49.4502 8.54715 50.9172 8.49141C51.7182 8.46207 51.906 8.78481 51.903 9.51536C51.8835 15.8625 51.8835 22.2096 51.903 28.5567C51.903 29.4369 51.5803 29.6628 50.7881 29.5894C50.2013 29.5337 49.6145 29.5894 49.0278 29.5718C48.1006 29.5718 47.0913 29.7655 46.2698 29.4633C45.3427 29.1171 46.0791 27.8173 45.4014 27.0633Z" fill="#6E80A3"/>
<path d="M189.356 22.5272C191.026 18.1556 192.677 13.8838 194.273 9.5885C194.567 8.78166 194.936 8.4472 195.84 8.48534C197.733 8.56749 199.628 8.51174 201.732 8.51174L198.352 16.5801C196.67 20.582 194.969 24.5751 193.329 28.5917C193.018 29.3486 192.625 29.6127 191.815 29.5834C190.054 29.5218 188.294 29.5335 186.534 29.5834C185.85 29.601 185.492 29.4044 185.216 28.7472C182.491 22.1722 179.715 15.6207 176.957 9.06039C176.916 8.87942 176.897 8.69432 176.899 8.5088C179.014 8.5088 181.097 8.53228 183.18 8.5088C183.961 8.5088 183.996 9.09559 184.172 9.55916C185.68 13.473 187.159 17.3957 188.664 21.295C188.81 21.6852 188.816 22.1722 189.356 22.5272Z" fill="#6E80A3"/>
<path d="M162.787 21.9759C162.787 24.1764 162.758 26.3768 162.787 28.5714C162.802 29.3254 162.602 29.61 161.81 29.5778C160.396 29.522 158.976 29.5015 157.562 29.5778C156.599 29.6364 156.444 29.255 156.453 28.4042C156.494 24.1558 156.432 19.8957 156.497 15.6562C156.514 14.5941 156.177 14.2655 155.182 14.4034C154.751 14.4621 154.302 14.3711 153.865 14.421C153.12 14.509 152.935 14.1628 152.985 13.4909C153.034 12.819 152.985 12.1237 152.985 11.4372C153.005 10.5159 152.729 9.38339 153.169 8.73205C153.61 8.08072 154.798 8.52961 155.654 8.52374C156.312 8.52374 156.485 8.26555 156.473 7.64356C156.441 6.17658 156.499 4.70961 156.45 3.24263C156.423 2.49448 156.623 2.20402 157.421 2.23629C158.888 2.2979 160.355 2.29497 161.822 2.23629C162.617 2.20695 162.816 2.49448 162.787 3.2485C162.728 4.66267 162.805 6.0827 162.755 7.49686C162.728 8.24502 162.931 8.61763 163.726 8.49147C163.774 8.48415 163.824 8.48415 163.872 8.49147C165.119 8.58242 167.176 7.99563 167.449 8.73499C168.036 10.2812 167.695 12.1706 167.698 13.9222C167.698 14.509 167.191 14.3887 166.818 14.3916C165.794 14.3916 164.764 14.4415 163.743 14.3916C162.972 14.3447 162.734 14.597 162.752 15.3745C162.834 17.5808 162.79 19.7784 162.787 21.9759Z" fill="#6E80A3"/>
<path d="M3.48847 21.8786C3.48847 19.8248 3.43859 17.7711 3.51194 15.7173C3.54714 14.7286 3.32123 14.353 2.25034 14.3648C0 14.4176 0 14.353 0 12.0645V11.1844C0 8.62303 0 8.58782 2.51439 8.52034C3.28602 8.4998 3.53834 8.28269 3.50607 7.51106C3.45032 6.14678 3.54421 4.77662 3.47086 3.40354C3.42392 2.52335 3.69678 2.1214 4.6063 2.22996C4.99358 2.27103 5.38673 2.22996 5.77988 2.27103C7.07375 2.37665 8.84292 1.68424 9.53533 2.56443C10.1837 3.3918 9.74951 5.07882 9.76125 6.37856C9.77885 8.4822 9.76125 8.4822 11.8297 8.4822C14.7079 8.4822 14.7079 8.4822 14.705 11.378C14.705 14.3677 14.705 14.4528 11.6478 14.3589C10.1339 14.309 9.67616 14.7139 9.72311 16.2718C9.8434 20.2708 9.72311 24.2756 9.78765 28.2775C9.78765 29.2956 9.52653 29.6506 8.48791 29.5802C7.17182 29.5034 5.85251 29.4985 4.53588 29.5656C3.67917 29.6008 3.45913 29.2722 3.47673 28.4565C3.52074 26.2795 3.4914 24.0879 3.48847 21.8786Z" fill="#6E80A3"/>
<path d="M121.705 10.413C123.313 8.94606 124.704 7.88398 126.646 8.1363C128.339 8.35634 128.641 8.76416 128.38 10.3984C128.304 10.8825 128.239 11.3666 128.163 11.8477C128.04 12.6194 128.139 13.5524 127.732 14.1157C127.277 14.7377 126.444 13.9631 125.737 13.9983C124.231 14.0717 123.278 14.8492 122.676 16.1372C121.978 17.6306 121.834 19.2413 121.82 20.8608C121.799 23.3048 121.735 25.7517 121.846 28.1957C121.899 29.4192 121.471 29.6627 120.379 29.5923C119.109 29.5217 117.835 29.5217 116.565 29.5923C115.849 29.6216 115.529 29.4837 115.535 28.6505C115.57 22.2486 115.57 15.8457 115.535 9.4419C115.535 8.60866 115.829 8.47076 116.553 8.5089C117.53 8.57506 118.51 8.57506 119.487 8.5089C120.737 8.38274 121.84 8.40035 121.705 10.413Z" fill="#6E80A3"/>
<path d="M107.028 10.5273C108.566 9.19234 109.686 8.25348 111.241 8.11265C113.33 7.91901 114.084 8.64663 113.826 10.6447C113.773 11.0319 113.712 11.4163 113.65 11.8006C113.53 12.5723 113.627 13.4964 113.225 14.0744C112.72 14.8021 111.878 13.9336 111.139 13.9982C110.504 14.0323 109.891 14.2455 109.372 14.6131C108.853 14.9806 108.448 15.4876 108.205 16.0754C107.604 17.4156 107.312 18.8732 107.348 20.3414C107.333 22.9819 107.272 25.6225 107.363 28.2425C107.404 29.3838 107.034 29.6596 105.963 29.5833C104.648 29.5129 103.33 29.5129 102.014 29.5833C101.281 29.6097 100.993 29.4219 100.996 28.6122C101.031 22.222 101.031 15.8328 100.996 9.44466C100.996 8.61436 101.307 8.46766 102.02 8.50287C103.041 8.54981 104.074 8.52341 105.092 8.50287C106.21 8.49407 107.515 8.20067 107.028 10.5273Z" fill="#6E80A3"/>
<path d="M22.2296 10.3598C23.0306 9.74371 23.5499 9.31536 24.0956 8.93394C24.7381 8.48282 25.4798 8.193 26.2579 8.08897C28.3792 7.79557 29.2564 8.69336 28.9278 10.7295C28.8574 11.1637 28.7928 11.6097 28.7254 12.0322C28.6109 12.751 28.7048 13.6224 28.3234 14.1505C27.8774 14.7696 27.1176 13.995 26.4516 14.0126C24.9376 14.0566 23.7905 14.8253 23.145 16.439C22.5582 17.8678 22.4467 19.3729 22.4408 20.8927C22.4408 23.4277 22.4086 25.9655 22.4614 28.5034C22.479 29.3425 22.2267 29.6124 21.3876 29.5801C19.9734 29.5244 18.5563 29.542 17.1421 29.5977C16.3969 29.6271 16.1182 29.4188 16.1211 28.6237C16.1505 22.2335 16.1505 15.8424 16.1211 9.45032C16.1211 8.63761 16.435 8.45864 17.1568 8.49385C18.1309 8.5408 19.1079 8.49385 20.0907 8.49385C21.2321 8.50852 22.6257 8.13591 22.2296 10.3598Z" fill="#6E80A3"/>
<path d="M174.697 29.5394H170.507C170.394 29.4647 170.261 29.4263 170.126 29.4295C169.99 29.4326 169.859 29.4771 169.75 29.557C168.996 29.6303 169.025 29.1257 169.028 28.6064C169.028 22.2573 169.028 15.9082 169.028 9.55917C169.028 8.79634 169.228 8.52348 170.017 8.55576C171.484 8.6115 172.951 8.57923 174.418 8.55576C174.946 8.55576 175.442 8.53815 175.298 9.30098C175.272 9.31859 175.219 9.34206 175.222 9.35086C175.244 9.4108 175.27 9.46955 175.298 9.52689V11.6511C175.233 11.7179 175.197 11.8073 175.197 11.9005C175.197 11.9936 175.233 12.083 175.298 12.1498C175.298 17.7322 175.298 23.3174 175.298 28.9056L175.248 28.9438H175.31C175.31 29.3222 175.151 29.5306 174.758 29.5306V29.4719L174.697 29.5394Z" fill="#6E80A3"/>
<path d="M175.156 3.10153C175.14 3.69758 174.949 4.27567 174.605 4.76302C174.262 5.25037 173.782 5.62521 173.226 5.84035C172.67 6.0555 172.062 6.10133 171.48 5.97208C170.898 5.84283 170.367 5.54428 169.955 5.114C169.542 4.68373 169.265 4.14096 169.16 3.55402C169.056 2.96708 169.127 2.3622 169.365 1.81552C169.603 1.26884 169.997 0.804798 170.498 0.481803C170.999 0.158807 171.585 -0.00870684 172.181 0.000348671C172.582 0.00122162 172.979 0.0829877 173.348 0.240751C173.717 0.398514 174.05 0.629036 174.328 0.918537C174.606 1.20804 174.822 1.55057 174.964 1.92565C175.107 2.30074 175.172 2.70067 175.156 3.10153Z" fill="#6E80A3"/>
<path d="M169.75 29.5539C169.859 29.4741 169.99 29.4296 170.126 29.4264C170.261 29.4233 170.394 29.4616 170.507 29.5363L169.75 29.5539Z" fill="#6E80A3"/>
<path d="M175.277 12.1589C175.212 12.0921 175.176 12.0027 175.176 11.9095C175.176 11.8164 175.212 11.727 175.277 11.6602C175.342 11.727 175.378 11.8164 175.378 11.9095C175.378 12.0027 175.342 12.0921 175.277 12.1589Z" fill="#6E80A3"/>
<path d="M175.275 9.53548C175.247 9.47814 175.222 9.41939 175.199 9.35945C175.199 9.35945 175.249 9.32717 175.275 9.30957C175.304 9.3621 175.327 9.41709 175.346 9.47387C175.352 9.48854 175.302 9.51494 175.275 9.53548Z" fill="#6E80A3"/>
<path d="M175.292 28.9644L175.23 28.9527L175.28 28.9146L175.345 28.9234L175.292 28.9644Z" fill="#6E80A3"/>
<path d="M174.699 29.5391L174.731 29.4922L174.743 29.5509L174.705 29.5978L174.699 29.5391Z" fill="#6E80A3"/>
</svg>
