<svg width="115" height="46" viewBox="0 0 115 46" fill="none" xmlns="http://www.w3.org/2000/svg">
<path d="M40.5297 30.8336H21.3306H20.5124H19.3326H18.8379C18.7428 30.8336 18.6476 30.8528 18.5715 30.872C17.4108 31.0828 16.6497 32.2134 16.859 33.3824C17.0493 34.398 17.9246 35.1454 18.9521 35.1454C18.9901 35.1454 19.0282 35.1454 19.0662 35.1454H20.0747C21.7301 35.1454 23.2333 36.7934 23.9564 38.3073L25.4025 41.3351C27.0009 45.1869 31.3963 47.0266 35.2209 45.4169C37.0857 44.6312 38.5508 43.1364 39.3119 41.2584C39.331 41.2201 39.35 41.1818 39.369 41.1435C39.7876 40.3961 42.5657 33.7273 42.5657 33.7273C42.775 33.1141 42.6989 32.4434 42.3564 31.8876C41.9758 31.2744 41.3289 30.8911 40.6058 30.872L40.5297 30.8336ZM2.2646 15.4264C1.02779 15.4264 0.0383363 16.4229 0.0383363 17.6685C0.0383363 18.9141 1.02779 19.9106 2.2646 19.9106H5.04267C6.26046 19.8723 7.23088 18.8375 7.19283 17.611C7.15477 16.4229 6.20338 15.4647 5.04267 15.4456L2.2646 15.4264ZM46.5235 15.4264H34.612C34.5359 15.4264 34.4598 15.4647 34.4408 15.5414L32.4429 20.1214C32.4048 20.2172 32.2906 20.2747 32.1955 20.2364C32.1384 20.2172 32.1004 20.1789 32.0813 20.1214L31.6437 19.3165C31.5676 19.1824 31.5105 19.0674 31.4344 18.9333C31.0348 18.2434 30.521 17.6493 29.9121 17.1319C28.6944 16.0971 27.1531 15.5031 25.5548 15.4456C25.4596 15.4456 25.3645 15.4456 25.2693 15.4456H11.6644C10.4847 15.4647 9.55229 16.4421 9.57131 17.6302C9.59034 18.6458 10.3324 19.5273 11.3219 19.6998C11.436 19.7381 11.5502 19.7573 11.6644 19.7573H13.6623C15.4319 19.7573 16.5926 21.3478 17.3537 22.9576L17.506 23.2642L18.5144 25.353C18.5715 25.5063 18.6857 25.7171 18.7998 25.9279C18.914 26.1387 19.0282 26.3494 19.1423 26.5411C19.2185 26.6752 19.3136 26.8094 19.4087 26.9243C20.4743 28.3041 22.3961 28.5915 24.2418 28.5915H44.7539C46.0668 25.6021 47.4749 22.2677 48.883 19.0099C49.1113 18.4734 49.3016 18.0134 49.3016 17.611C49.3396 16.4229 48.4073 15.4456 47.2275 15.4072C47.2085 15.4072 47.1895 15.4072 47.1704 15.4072L46.5235 15.4264ZM2.11238 0C0.932648 0.0191632 -0.0187474 0.977325 0.000280525 2.16545C0.0193084 3.21942 0.780425 4.1201 1.82696 4.2734C1.84599 4.29256 1.94113 4.31173 2.11238 4.33089H6.6981C8.4677 4.33089 10.047 5.9406 10.8081 7.55031L10.9413 7.83776C11.1887 8.43182 11.4931 9.14086 11.7976 9.86907L11.8356 9.94572C12.9963 12.6669 14.804 13.2035 17.7533 13.2035H29.1701L25.5167 4.8483L25.2884 4.31173C24.6604 2.85532 23.5568 1.6672 22.1678 0.919835L22.0726 0.862346L21.9775 0.804856C21.4638 0.536571 20.9119 0.344938 20.3411 0.191632C19.9415 0.0958162 19.5419 0.0191632 19.1233 0H2.11238ZM37.9039 0C39.0836 0.0383265 39.9969 1.01565 39.9779 2.20377C39.9779 2.49122 39.9018 2.77867 39.7876 3.04695C39.7876 3.06612 39.7686 3.10444 39.7496 3.14277C39.7305 3.1811 39.1597 4.50336 39.1407 4.52252L35.4493 13.1843H51.3756C53.031 9.35166 54.5533 5.7873 55.7901 2.91281C56.38 1.53306 55.2573 0 53.7922 0H37.9039Z" fill="#6E80A3"/>
<path d="M58.475 32.1753C58.475 32.8843 57.9803 33.3443 57.2572 33.3443H56.2868V34.7815H55.9062V31.0447H57.2572C57.9993 31.0447 58.475 31.5046 58.475 32.1753ZM58.0754 32.2136C58.0945 31.7729 57.752 31.3896 57.2953 31.3705C57.2572 31.3705 57.2382 31.3705 57.2002 31.3705H56.2678V33.0568H57.2002C57.6378 33.0951 58.0374 32.7694 58.0754 32.3095C58.0754 32.2711 58.0754 32.2328 58.0754 32.2136Z" fill="#6E80A3"/>
<path d="M58.832 33.4592C58.832 32.616 59.3838 32.0603 60.202 32.0603C61.0202 32.0603 61.553 32.616 61.553 33.4592C61.553 34.3024 61.0012 34.8581 60.202 34.8581C59.4029 34.8581 58.832 34.2832 58.832 33.4592ZM61.1725 33.4592C61.1725 32.8077 60.7919 32.3861 60.202 32.3861C59.6122 32.3861 59.2126 32.8077 59.2126 33.4592C59.2126 34.1108 59.6122 34.5324 60.202 34.5324C60.7919 34.5324 61.1725 34.1108 61.1725 33.4592Z" fill="#6E80A3"/>
<path d="M66.2919 32.1174L65.2453 34.8003H64.8838L64.0466 32.539L63.2284 34.8003H62.8478L61.8203 32.1174H62.2199L63.0571 34.3787L63.8944 32.1174H64.2178L65.036 34.3787L65.8733 32.1174H66.2919Z" fill="#6E80A3"/>
<path d="M69.0703 33.5931H66.9392C66.9772 34.168 67.3007 34.5513 67.8335 34.5513C68.176 34.5513 68.4994 34.3788 68.6897 34.0914L68.9751 34.2447C68.7278 34.6279 68.2901 34.8579 67.8335 34.8387C67.0723 34.8387 66.5586 34.283 66.5586 33.4398C66.5586 32.5966 67.0723 32.0409 67.8335 32.0409C68.5946 32.0409 69.0893 32.5775 69.0893 33.4015C69.0703 33.4781 69.0703 33.5356 69.0703 33.5931ZM66.9392 33.3248H68.6897C68.6517 32.7308 68.3282 32.3475 67.8144 32.3475C67.3007 32.3475 66.9772 32.7308 66.9392 33.3248Z" fill="#6E80A3"/>
<path d="M71.1263 32.0603L71.0883 32.4052C70.4413 32.4052 70.0608 32.731 70.0608 33.2484V34.8006H69.6992V32.1178H70.0608V32.5777C70.251 32.2328 70.6126 32.0603 71.1263 32.0603Z" fill="#6E80A3"/>
<path d="M73.7343 33.5931H71.6032C71.6413 34.168 71.9647 34.5513 72.4975 34.5513C72.84 34.5513 73.1635 34.3788 73.3538 34.0914L73.6392 34.2447C73.3918 34.6279 72.9542 34.8579 72.4975 34.8387C71.7364 34.8387 71.2227 34.283 71.2227 33.4398C71.2227 32.5966 71.7174 32.0409 72.4975 32.0409C73.2777 32.0409 73.7534 32.5775 73.7534 33.4015C73.7343 33.459 73.7343 33.5548 73.7343 33.5931ZM71.6032 33.3248H73.3538C73.3157 32.7308 72.9923 32.3475 72.4785 32.3475C71.9647 32.3475 71.6413 32.7308 71.6032 33.3248Z" fill="#6E80A3"/>
<path d="M76.9129 30.8339V34.8007H76.5514V34.2258C76.3611 34.6282 75.9425 34.8773 75.4858 34.8581C74.7437 34.8581 74.2109 34.3024 74.2109 33.4784C74.2109 32.6544 74.7437 32.0795 75.4858 32.0795C75.9425 32.0603 76.3611 32.3094 76.5514 32.7119V30.853L76.9129 30.8339ZM76.5514 33.4592C76.5514 32.8077 76.1518 32.3861 75.5619 32.3861C74.9721 32.3861 74.5725 32.8077 74.5725 33.4592C74.5725 34.1108 74.9721 34.5324 75.5619 34.5324C76.1518 34.5324 76.5514 34.1108 76.5514 33.4592Z" fill="#6E80A3"/>
<path d="M81.784 33.459C81.784 34.3022 81.2512 34.8387 80.5091 34.8387C80.0525 34.8771 79.6338 34.6088 79.4436 34.2063V34.7812H79.082V30.8145H79.4436V32.6733C79.6338 32.2709 80.0525 32.0217 80.5091 32.0409C81.2512 32.0601 81.784 32.6158 81.784 33.459ZM81.4034 33.459C81.4034 32.8074 81.0038 32.3858 80.414 32.3858C79.8241 32.3858 79.4245 32.8074 79.4245 33.459C79.4245 34.1105 79.8241 34.5321 80.414 34.5321C81.0038 34.5321 81.4034 34.1105 81.4034 33.459Z" fill="#6E80A3"/>
<path d="M82.2971 35.9121L82.3352 35.6055C82.4113 35.6438 82.4874 35.663 82.5635 35.6438C82.7919 35.6438 82.887 35.4905 82.9821 35.2606L83.2105 34.7623L82.0117 32.0986H82.4113L83.4008 34.3599L84.3521 32.0986H84.7517L83.3246 35.2989C83.1534 35.6822 82.9821 35.9504 82.6016 35.9504C82.5064 35.9696 82.3923 35.9504 82.2971 35.9121Z" fill="#6E80A3"/>
<path d="M55.3555 37.2917H55.9263L57.2583 40.4154L58.5522 37.2917H59.142L57.5056 41.0861H56.9919L55.3555 37.2917Z" fill="#6E80A3"/>
<path d="M60.1656 37.7325V39.0356H61.6688V39.4955H60.1656V41.0861H59.6328V37.2917H61.8781V37.7325H60.1656Z" fill="#6E80A3"/>
<path d="M65.7777 39.1887C65.7777 40.3193 65.0356 41.0858 63.932 41.0858H62.543V37.2723H63.932C65.0356 37.2915 65.7777 38.058 65.7777 39.1887ZM65.2069 39.2078C65.2069 38.3263 64.6741 37.7514 63.8939 37.7514H63.0757V40.6642H63.8939C64.6931 40.6451 65.2069 40.0702 65.2069 39.2078Z" fill="#6E80A3"/>
<path d="M71.5092 41.0861L71.338 38.2116L70.0441 41.0861H69.7206L68.4267 38.2116L68.2554 41.0861H67.7227L67.951 37.2534H68.5409L69.8918 40.2046L71.2238 37.2534H71.8137L72.042 41.0861H71.5092Z" fill="#6E80A3"/>
<path d="M72.7422 37.445C72.7422 37.2726 72.8944 37.1193 73.0657 37.1193C73.2369 37.1193 73.3891 37.2726 73.3891 37.445C73.3891 37.6175 73.2369 37.7708 73.0657 37.7708C72.8944 37.7708 72.7422 37.6367 72.7422 37.4642V37.445ZM72.8183 38.3457H73.3321V41.1052H72.8183V38.3457Z" fill="#6E80A3"/>
<path d="M73.9453 39.7252C73.9453 38.8629 74.5161 38.288 75.3724 38.288C75.6959 38.288 76.0194 38.3838 76.2857 38.5946L75.9813 38.9395C75.81 38.7862 75.6007 38.7096 75.3724 38.7287C74.8396 38.7287 74.4781 39.112 74.4781 39.706C74.4781 40.3001 74.8396 40.6834 75.3724 40.6834C75.6198 40.6834 75.8862 40.5876 76.0574 40.4151L76.3619 40.7792C76.0764 41.0283 75.7149 41.1624 75.3534 41.1433C74.6113 41.1816 73.9834 40.6259 73.9453 39.8977C73.9453 39.821 73.9453 39.7827 73.9453 39.7252Z" fill="#6E80A3"/>
<path d="M78.4314 38.288L78.3933 38.767C77.7844 38.767 77.4039 39.0737 77.4039 39.5527V41.0858H76.8711V38.3455H77.3658V38.7479C77.5751 38.4604 77.9557 38.288 78.4314 38.288Z" fill="#6E80A3"/>
<path d="M78.5469 39.7252C78.5469 38.9395 79.1748 38.288 79.9549 38.288C80.7351 38.288 81.382 38.9203 81.382 39.706C81.382 40.4917 80.7541 41.1433 79.974 41.1433C79.1177 41.1433 78.5469 40.5684 78.5469 39.7252ZM80.8493 39.7252C80.8493 39.1503 80.4877 38.7479 79.974 38.7479C79.4602 38.7479 79.0797 39.1311 79.0797 39.7252C79.0797 40.3193 79.4412 40.6834 79.974 40.6834C80.5067 40.6834 80.8493 40.3001 80.8493 39.7252Z" fill="#6E80A3"/>
<path d="M82.9809 37.0236C83.1712 37.0236 83.3805 37.0619 83.5517 37.1385L83.5137 37.541C83.3995 37.4835 83.2663 37.4643 83.1331 37.4643C82.9048 37.4451 82.6955 37.6176 82.6574 37.8476C82.6574 37.8667 82.6574 37.8859 82.6574 37.9051V38.3267H83.4756V38.7482H82.6574V41.067H82.1246V38.7482H81.668V38.3267H82.1246V37.8284C82.1056 37.4068 82.4291 37.0236 82.8667 37.0044C82.9238 37.0044 82.9428 37.0044 82.9809 37.0236ZM83.8942 37.426C83.8942 37.2535 84.0465 37.1002 84.2177 37.1002C84.389 37.1002 84.5412 37.2535 84.5412 37.426C84.5412 37.5985 84.389 37.7518 84.2177 37.7518C84.0465 37.7518 83.8942 37.6176 83.8942 37.4451C83.8942 37.4451 83.8942 37.4451 83.8942 37.426ZM83.9513 38.3267H84.4651V41.0862H83.9513V38.3267Z" fill="#6E80A3"/>
<path d="M87.8149 39.3611V41.0858H87.3011V39.4569C87.3011 39.0353 86.9586 38.6904 86.54 38.6904C86.1214 38.6904 85.7789 39.0353 85.7789 39.4569V41.0858H85.2461V38.3454H85.7408L85.7598 38.7479C85.9692 38.4412 86.3307 38.2688 86.6922 38.2879C87.3582 38.2879 87.8149 38.7095 87.8149 39.3611Z" fill="#6E80A3"/>
<path d="M90.7066 39.3612V41.0859H90.1929L90.1738 40.6068C89.9835 40.9518 89.622 41.1434 89.2415 41.1434C88.6897 41.1434 88.3281 40.8176 88.3281 40.3194C88.3281 39.8211 88.7848 39.457 89.4698 39.457C89.6981 39.457 89.9455 39.4762 90.1738 39.5337V39.4187C90.1738 38.9779 89.8884 38.7097 89.4317 38.7097C89.1654 38.6905 88.918 38.7863 88.7277 38.9779L88.4994 38.6713C88.7848 38.4222 89.1654 38.2881 89.5649 38.3072C90.2499 38.2881 90.7066 38.7097 90.7066 39.3612ZM90.1929 39.8978C89.9836 39.8594 89.7742 39.8211 89.5459 39.8211C89.1463 39.8211 88.8799 40.0128 88.8799 40.3002C88.8799 40.5877 89.0702 40.7601 89.3937 40.7601C89.8504 40.741 90.2119 40.3577 90.1929 39.8978Z" fill="#6E80A3"/>
<path d="M93.999 39.3611V41.0858H93.4852V39.4569C93.5042 39.0736 93.1998 38.7479 92.8192 38.7479C92.7812 38.7479 92.7621 38.7479 92.7241 38.7479C92.2674 38.7479 91.963 39.0353 91.963 39.4569V41.0858H91.4492V38.3454H91.9439V38.7479C92.1533 38.4412 92.5148 38.2688 92.8953 38.2879C93.5613 38.2879 93.999 38.7095 93.999 39.3611Z" fill="#6E80A3"/>
<path d="M94.5664 39.7252C94.5664 38.8629 95.1372 38.288 95.9935 38.288C96.317 38.288 96.6404 38.3838 96.9068 38.5946L96.6024 38.9395C96.4311 38.7862 96.2218 38.7096 95.9935 38.7287C95.4607 38.7287 95.0992 39.112 95.0992 39.706C95.0992 40.3001 95.4607 40.6834 95.9935 40.6834C96.2409 40.7025 96.5073 40.5876 96.6785 40.4151L96.983 40.7792C96.6975 41.0283 96.336 41.1624 95.9745 41.1433C95.2324 41.2008 94.6045 40.6259 94.5664 39.8977C94.5664 39.8402 94.5664 39.7827 94.5664 39.7252Z" fill="#6E80A3"/>
<path d="M99.8949 39.9168H97.8208C97.8779 40.4151 98.1253 40.7409 98.601 40.7409C98.9054 40.7409 99.2099 40.5876 99.3811 40.3384L99.7807 40.5492C99.5143 40.9325 99.0767 41.1624 98.601 41.1433C97.8018 41.1433 97.25 40.5684 97.25 39.7252C97.25 38.882 97.7828 38.288 98.5819 38.288C99.3811 38.288 99.8949 38.8437 99.8949 39.6869C99.9139 39.7635 99.9139 39.8402 99.8949 39.9168ZM97.8208 39.5527H99.3811C99.3431 39.0353 99.0577 38.7096 98.601 38.7096C98.1443 38.7096 97.8779 39.0353 97.8208 39.5527Z" fill="#6E80A3"/>
<path d="M104.749 40.0127C104.749 40.6642 104.235 41.0858 103.474 41.0858H101.914V37.2723H103.417C104.102 37.2723 104.559 37.6556 104.559 38.2497C104.559 38.6138 104.331 38.9395 103.988 39.0737C104.426 39.1695 104.749 39.5528 104.749 40.0127ZM102.466 38.9012H103.303C103.722 38.9012 104.007 38.6713 104.007 38.3072C104.007 37.9431 103.722 37.7131 103.303 37.7131H102.466V38.9012ZM104.178 39.9935C104.178 39.6103 103.874 39.3611 103.436 39.3611H102.447V40.6451H103.417C103.893 40.6451 104.178 40.3768 104.178 39.9935Z" fill="#6E80A3"/>
<path d="M107.527 39.3612V41.0859H107.013L106.994 40.6068C106.804 40.9518 106.442 41.1434 106.062 41.1434C105.51 41.1434 105.148 40.8176 105.148 40.3194C105.148 39.8211 105.605 39.457 106.29 39.457C106.518 39.457 106.766 39.4762 106.994 39.5337V39.4187C106.994 38.9779 106.709 38.7097 106.252 38.7097C105.986 38.6905 105.738 38.7863 105.548 38.9779L105.32 38.6713C105.605 38.4222 105.986 38.2881 106.385 38.3072C107.07 38.2881 107.527 38.7097 107.527 39.3612ZM106.994 39.8978C106.785 39.8594 106.576 39.8211 106.347 39.8211C105.948 39.8211 105.681 40.0128 105.681 40.3002C105.681 40.5877 105.871 40.7601 106.195 40.7601C106.671 40.741 107.013 40.3769 106.994 39.8978C106.994 39.9169 106.994 39.9169 106.994 39.8978Z" fill="#6E80A3"/>
<path d="M110.818 39.3611V41.0858H110.285V39.4569C110.305 39.0736 110 38.7479 109.62 38.7479C109.581 38.7479 109.562 38.7479 109.524 38.7479C109.068 38.7479 108.763 39.0353 108.763 39.4569V41.0858H108.23V38.3454H108.725V38.7479C108.935 38.4412 109.296 38.2688 109.677 38.2879C110.362 38.2879 110.818 38.7095 110.818 39.3611Z" fill="#6E80A3"/>
<path d="M112.495 39.8596H112.095V41.086H111.562V37.0809H112.095V39.438H112.495L113.465 38.3457H114.131L112.913 39.6488L114.188 41.086H113.522L112.495 39.8596Z" fill="#6E80A3"/>
</svg>
